# Mesh "Adriana_01_LOD1_Eye" exported with Unity Assets Bundle Extractor; 48 vertices, 198 indices, 368 bits per vertex
g Adriana_01_LOD1_Eye
# SubMesh 0
# Vertices
v 0.028425 -0.077651 1.716654
vt 0.175659 0.813965
vn 0.263534 -0.893054 -0.364699
v 0.007614 -0.079384 1.707047
vt 0.154297 0.802734
vn 0.251280 -0.915451 -0.314337
v -0.000000 -0.082943 1.716326
vt 0.145996 0.812500
vn 0.181016 -0.958621 -0.219724
v 0.025505 -0.074940 1.710384
vt 0.174438 0.804199
vn 0.341490 -0.837179 -0.427220
v 0.044356 -0.070854 1.716458
vt 0.193604 0.814453
vn 0.431342 -0.816861 -0.382991
v 0.029528 -0.064514 1.693820
vt 0.183838 0.791016
vn 0.370950 -0.873839 -0.314327
v 0.010037 -0.071892 1.688180
vt 0.159180 0.782227
vn 0.416918 -0.869766 -0.263982
v 0.043342 -0.067868 1.709155
vt 0.194336 0.806152
vn 0.399969 -0.800940 -0.445555
v 0.058339 -0.060632 1.715987
vt 0.211426 0.814453
vn 0.684443 -0.704900 -0.186155
v 0.046114 -0.058205 1.696345
vt 0.201904 0.792969
vn 0.450605 -0.842751 -0.294491
v 0.052712 -0.050742 1.670553
vt 0.211548 0.762207
vn 0.530056 -0.846726 -0.045777
v 0.059231 -0.057371 1.707650
vt 0.214722 0.805176
vn 0.594108 -0.728866 -0.340280
v 0.071138 -0.040235 1.707521
vt 0.239868 0.804199
vn 0.847182 -0.529328 -0.045776
v 0.023988 -0.061425 1.677400
vt 0.179565 0.775391
vn 0.415866 -0.907165 -0.064086
v 0.007993 -0.070803 1.672938
vt 0.157471 0.766602
vn 0.510327 -0.859676 -0.022888
v 0.019768 -0.065595 1.668294
vt 0.172607 0.761230
vn 0.479002 -0.870718 0.111391
v 0.034076 -0.061858 1.662371
vt 0.188354 0.753418
vn 0.399801 -0.864308 0.305173
v 0.035008 -0.057592 1.669966
vt 0.191284 0.762207
vn 0.364375 -0.931072 -0.018311
v 0.053547 -0.052047 1.662370
vt 0.214111 0.752441
vn 0.551231 -0.814354 0.181582
v 0.066160 -0.036263 1.673880
vt 0.234741 0.764160
vn 0.761559 -0.643589 -0.076294
v 0.065332 -0.045191 1.695452
vt 0.226563 0.790527
vn 0.642447 -0.724320 -0.250246
v 0.068512 -0.045387 1.703107
vt 0.229980 0.800781
vn 0.817200 -0.554512 -0.157165
v 0.071816 -0.035629 1.697963
vt 0.240479 0.792480
vn 0.829236 -0.517712 -0.210575
v 0.061450 -0.043439 1.677162
vt 0.223511 0.769531
vn 0.693332 -0.709402 -0.126650
v -0.007614 -0.079384 1.707047
vt 0.154297 0.802734
vn -0.251280 -0.915451 -0.314337
v -0.028425 -0.077651 1.716654
vt 0.175659 0.813965
vn -0.263534 -0.893054 -0.364699
v -0.000000 -0.082943 1.716326
vt 0.145996 0.812500
vn -0.181018 -0.958621 -0.219724
v -0.025505 -0.074940 1.710384
vt 0.174438 0.804199
vn -0.341490 -0.837179 -0.427220
v -0.044356 -0.070854 1.716458
vt 0.193604 0.814453
vn -0.431342 -0.816861 -0.382991
v -0.029528 -0.064514 1.693820
vt 0.183838 0.791016
vn -0.370950 -0.873839 -0.314327
v -0.010037 -0.071892 1.688180
vt 0.159180 0.782227
vn -0.416918 -0.869766 -0.263982
v -0.043342 -0.067868 1.709155
vt 0.194336 0.806152
vn -0.399969 -0.800940 -0.445555
v -0.058339 -0.060632 1.715987
vt 0.211426 0.814453
vn -0.684492 -0.704853 -0.186155
v -0.046114 -0.058205 1.696345
vt 0.201904 0.792969
vn -0.450605 -0.842751 -0.294491
v -0.052712 -0.050742 1.670553
vt 0.211548 0.762207
vn -0.530056 -0.846726 -0.045777
v -0.059231 -0.057371 1.707650
vt 0.214722 0.805176
vn -0.594108 -0.728866 -0.340280
v -0.071138 -0.040235 1.707521
vt 0.239868 0.804199
vn -0.847168 -0.529349 -0.045777
v -0.023988 -0.061425 1.677400
vt 0.179565 0.775391
vn -0.415866 -0.907165 -0.064086
v -0.007993 -0.070803 1.672938
vt 0.157471 0.766602
vn -0.510322 -0.859679 -0.022888
v -0.019768 -0.065595 1.668294
vt 0.172607 0.761230
vn -0.479002 -0.870718 0.111391
v -0.034076 -0.061858 1.662371
vt 0.187866 0.752441
vn -0.399801 -0.864308 0.305173
v -0.035008 -0.057592 1.669966
vt 0.191284 0.762207
vn -0.364354 -0.931080 -0.018311
v -0.053547 -0.052047 1.662370
vt 0.214111 0.752441
vn -0.551231 -0.814354 0.181582
v -0.066160 -0.036263 1.673880
vt 0.234741 0.764160
vn -0.761559 -0.643589 -0.076294
v -0.065332 -0.045191 1.695452
vt 0.226563 0.790527
vn -0.642447 -0.724320 -0.250246
v -0.068512 -0.045387 1.703107
vt 0.229980 0.800781
vn -0.817200 -0.554512 -0.157165
v -0.071816 -0.035629 1.697963
vt 0.240479 0.792480
vn -0.829236 -0.517712 -0.210575
v -0.061450 -0.043439 1.677162
vt 0.223511 0.769531
vn -0.693332 -0.709402 -0.126650
# Faces (1 to 48)
g Adriana_01_LOD1_Eye_0
f -46/-46/-46 -47/-47/-47 -48/-48/-48
f -47/-47/-47 -45/-45/-45 -48/-48/-48
f -44/-44/-44 -48/-48/-48 -45/-45/-45
f -45/-45/-45 -47/-47/-47 -43/-43/-43
f -47/-47/-47 -42/-42/-42 -43/-43/-43
f -41/-41/-41 -44/-44/-44 -45/-45/-45
f -40/-40/-40 -44/-44/-44 -41/-41/-41
f -39/-39/-39 -41/-41/-41 -45/-45/-45
f -43/-43/-43 -39/-39/-39 -45/-45/-45
f -38/-38/-38 -39/-39/-39 -43/-43/-43
f -37/-37/-37 -40/-40/-40 -41/-41/-41
f -37/-37/-37 -41/-41/-41 -39/-39/-39
f -36/-36/-36 -40/-40/-40 -37/-37/-37
f -43/-43/-43 -42/-42/-42 -35/-35/-35
f -42/-42/-42 -34/-34/-34 -35/-35/-35
f -34/-34/-34 -33/-33/-33 -35/-35/-35
f -33/-33/-33 -32/-32/-32 -35/-35/-35
f -43/-43/-43 -35/-35/-35 -31/-31/-31
f -32/-32/-32 -31/-31/-31 -35/-35/-35
f -31/-31/-31 -38/-38/-38 -43/-43/-43
f -31/-31/-31 -32/-32/-32 -38/-38/-38
f -32/-32/-32 -30/-30/-30 -38/-38/-38
f -38/-38/-38 -30/-30/-30 -29/-29/-29
f -28/-28/-28 -39/-39/-39 -38/-38/-38
f -37/-37/-37 -39/-39/-39 -28/-28/-28
f -27/-27/-27 -36/-36/-36 -37/-37/-37
f -27/-27/-27 -37/-37/-37 -28/-28/-28
f -27/-27/-27 -26/-26/-26 -36/-36/-36
f -28/-28/-28 -26/-26/-26 -27/-27/-27
f -29/-29/-29 -26/-26/-26 -28/-28/-28
f -25/-25/-25 -38/-38/-38 -29/-29/-29
f -25/-25/-25 -29/-29/-29 -28/-28/-28
f -25/-25/-25 -28/-28/-28 -38/-38/-38
f -22/-22/-22 -23/-23/-23 -24/-24/-24
f -23/-23/-23 -21/-21/-21 -24/-24/-24
f -21/-21/-21 -23/-23/-23 -20/-20/-20
f -24/-24/-24 -21/-21/-21 -19/-19/-19
f -18/-18/-18 -24/-24/-24 -19/-19/-19
f -17/-17/-17 -21/-21/-21 -20/-20/-20
f -20/-20/-20 -16/-16/-16 -17/-17/-17
f -21/-21/-21 -17/-17/-17 -15/-15/-15
f -19/-19/-19 -21/-21/-21 -15/-15/-15
f -15/-15/-15 -14/-14/-14 -19/-19/-19
f -16/-16/-16 -13/-13/-13 -17/-17/-17
f -17/-17/-17 -13/-13/-13 -15/-15/-15
f -13/-13/-13 -16/-16/-16 -12/-12/-12
f -18/-18/-18 -19/-19/-19 -11/-11/-11
f -18/-18/-18 -11/-11/-11 -10/-10/-10
f -11/-11/-11 -9/-9/-9 -10/-10/-10
f -8/-8/-8 -9/-9/-9 -11/-11/-11
f -11/-11/-11 -19/-19/-19 -7/-7/-7
f -7/-7/-7 -8/-8/-8 -11/-11/-11
f -14/-14/-14 -7/-7/-7 -19/-19/-19
f -7/-7/-7 -14/-14/-14 -8/-8/-8
f -14/-14/-14 -6/-6/-6 -8/-8/-8
f -5/-5/-5 -6/-6/-6 -14/-14/-14
f -15/-15/-15 -4/-4/-4 -14/-14/-14
f -4/-4/-4 -15/-15/-15 -13/-13/-13
f -3/-3/-3 -13/-13/-13 -12/-12/-12
f -3/-3/-3 -4/-4/-4 -13/-13/-13
f -2/-2/-2 -3/-3/-3 -12/-12/-12
f -2/-2/-2 -4/-4/-4 -3/-3/-3
f -2/-2/-2 -5/-5/-5 -4/-4/-4
f -1/-1/-1 -5/-5/-5 -14/-14/-14
f -5/-5/-5 -1/-1/-1 -4/-4/-4
f -4/-4/-4 -1/-1/-1 -14/-14/-14

